<?xml version="1.0" encoding="utf-8"?>
<svg version="1.1" id="ac" xmlns="http://www.w3.org/2000/svg" xmlns:xlink="http://www.w3.org/1999/xlink" x="0px" y="0px" viewBox="0 0 651.969 433.701" xml:space="preserve">
<g fill="#FFFFFF">
<path id="C2" opacity="0.9" d="M466.399,343.004l44.303,86.54c60.616-16.074,113.17-54.959,140.744-107.825l-71.537-41.233C556.325,316.217,513.809,340.795,466.399,343.004z"/>
<path id="C1" opacity="0.9" d="M476.016,92.38c47.416,8.025,84.473,39.633,103.8,78.465l72.152-28.809C618.796,63.302,547.801,0,464.389,0c-50.74,0-104.342,18.434-148.553,48.899l35.963,70.25C388.174,96.787,434.668,85.383,476.016,92.38z"/>
<polygon id="A" opacity="0.8" points="276.52,433.701 0,433.701 217.266,0.299 434.531,433.701 352.704,433.701 217.266,164.595 118.508,360.051 239.839,360.051"/>
</g>
</svg>
